<svg xmlns="http://www.w3.org/2000/svg" viewBox="0 0 218.64 219.05"><defs><style>.cls-1,.cls-3{fill:#231815;}.cls-2{fill:#fff;}.cls-3{writing-mode:tb;text-orientation:upright;glyph-orientation-vertical:0deg;font-size:82.43px;font-family:GenWanMinTW-SB, GenWanMin TW;}</style></defs><g id="圖層_2" data-name="圖層 2"><g id="圖層_1-2" data-name="圖層 1"><polygon class="cls-1" points="85.8 19.75 89.41 19.74 92.73 31 89.11 31.02 85.8 19.75"/><polygon class="cls-1" points="97.42 14.52 98.9 15.99 75.4 17.65 73.92 16.18 97.42 14.52"/><path class="cls-1" d="M46.4,57.78C54.24,44.42,66,35.24,74.15,29.85A162.91,162.91,0,0,1,96.32,17.79L135.66,3.37,130,2.18s-5.39,1.89-12.35,4.4c-14.74,5.31-26,9.87-28.3,10.8C69.11,25.71,49.84,45.91,43.62,52.7Z"/><polygon class="cls-1" points="152.24 193.63 149.99 193.65 147.93 179.95 150.18 179.93 152.24 193.63"/><polygon class="cls-1" points="145.01 200 144.1 198.21 158.7 196.19 159.61 197.98 145.01 200"/><path class="cls-1" d="M176.71,147.37a103.86,103.86,0,0,1-17.24,34A107.81,107.81,0,0,1,145.7,196l-24.44,17.55L124.8,215s3.35-2.29,7.67-5.35c9.16-6.46,16.19-12,17.58-13.14,12.55-10.14,24.52-34.71,28.38-43C177.86,151.49,177.28,149.43,176.71,147.37Z"/><ellipse class="cls-1" cx="186.16" cy="143.2" rx="9.31" ry="8.73" transform="translate(-28.06 239.5) rotate(-61.77)"/><ellipse class="cls-1" cx="190.33" cy="119.57" rx="9.31" ry="8.73" transform="translate(-5.04 230.71) rotate(-61.77)"/><ellipse class="cls-1" cx="184.82" cy="130.83" rx="8.56" ry="9.55" transform="translate(-17.87 231.8) rotate(-61.77)"/><ellipse class="cls-1" cx="176.78" cy="122.28" rx="8.8" ry="8.24" transform="translate(-14.57 220.21) rotate(-61.77)"/><ellipse class="cls-1" cx="173.64" cy="136.9" rx="8.8" ry="8.24" transform="translate(-29.1 225.15) rotate(-61.77)"/><ellipse class="cls-1" cx="197.19" cy="132.51" rx="8.8" ry="8.24" transform="translate(-12.83 243.58) rotate(-61.77)"/><ellipse class="cls-2" cx="184.82" cy="130.83" rx="1.45" ry="1.36" transform="translate(-17.87 231.8) rotate(-61.77)"/><rect class="cls-2" x="186.61" y="123.71" width="0.51" height="6.63" transform="translate(82.3 -73.28) rotate(28.23)"/><ellipse class="cls-2" cx="188.66" cy="123.68" rx="0.81" ry="0.76" transform="translate(-9.54 231.41) rotate(-61.77)"/><polygon class="cls-2" points="185.2 129.87 184.69 129.82 185.49 123.3 186 123.34 185.2 129.87"/><ellipse class="cls-2" cx="185.81" cy="122.85" rx="0.81" ry="0.76" transform="translate(-10.31 228.46) rotate(-61.77)"/><polygon class="cls-2" points="184.82 129.81 184.32 129.98 182.67 123.77 183.17 123.6 184.82 129.81"/><ellipse class="cls-2" cx="182.8" cy="123.23" rx="0.81" ry="0.76" transform="translate(-12.24 226.01) rotate(-61.77)"/><polygon class="cls-2" points="184.44 129.91 184.03 130.26 180.18 125.31 180.59 124.96 184.44 129.91"/><ellipse class="cls-2" cx="180.1" cy="124.77" rx="0.81" ry="0.76" transform="translate(-15.01 224.45) rotate(-61.77)"/><rect class="cls-2" x="180.98" y="125.81" width="0.54" height="6.21" transform="translate(-18.06 227.65) rotate(-61.77)"/><ellipse class="cls-2" cx="178.12" cy="127.24" rx="0.81" ry="0.76" transform="translate(-18.23 224) rotate(-61.77)"/><polygon class="cls-2" points="183.91 130.49 183.84 131.03 177.58 130.55 177.65 130.01 183.91 130.49"/><ellipse class="cls-2" cx="177.16" cy="130.25" rx="0.81" ry="0.76" transform="matrix(0.47, -0.88, 0.88, 0.47, -21.39, 224.74)"/><polygon class="cls-2" points="183.83 130.89 183.97 131.4 177.88 133.45 177.74 132.94 183.83 130.89"/><ellipse class="cls-2" cx="177.37" cy="133.35" rx="0.81" ry="0.76" transform="translate(-24.01 226.56) rotate(-61.77)"/><polygon class="cls-2" points="183.91 131.28 184.23 131.69 179.23 135.96 178.92 135.55 183.91 131.28"/><ellipse class="cls-2" cx="178.71" cy="136.06" rx="0.81" ry="0.76" transform="translate(-25.7 229.17) rotate(-61.77)"/><rect class="cls-2" x="182.53" y="131.33" width="0.51" height="6.63" transform="translate(280.15 339.72) rotate(-151.77)"/><ellipse class="cls-2" cx="180.99" cy="137.99" rx="0.81" ry="0.76" transform="translate(-26.19 232.19) rotate(-61.77)"/><polygon class="cls-2" points="184.45 131.8 184.96 131.84 184.16 138.37 183.64 138.33 184.45 131.8"/><ellipse class="cls-2" cx="183.84" cy="138.82" rx="0.81" ry="0.76" transform="translate(-25.42 235.14) rotate(-61.77)"/><polygon class="cls-2" points="184.82 131.86 185.32 131.69 186.98 137.9 186.48 138.07 184.82 131.86"/><ellipse class="cls-2" cx="186.85" cy="138.43" rx="0.81" ry="0.76" transform="translate(-23.5 237.59) rotate(-61.77)"/><polygon class="cls-2" points="185.2 131.76 185.61 131.41 189.47 136.36 189.06 136.71 185.2 131.76"/><ellipse class="cls-2" cx="189.55" cy="136.89" rx="0.81" ry="0.76" transform="translate(-20.72 239.16) rotate(-61.77)"/><rect class="cls-2" x="188.12" y="129.64" width="0.54" height="6.21" transform="translate(394.46 29.54) rotate(118.23)"/><ellipse class="cls-2" cx="191.53" cy="134.43" rx="0.81" ry="0.76" transform="translate(-17.5 239.6) rotate(-61.77)"/><polygon class="cls-2" points="185.74 131.17 185.81 130.64 192.06 131.12 192 131.65 185.74 131.17"/><ellipse class="cls-2" cx="192.49" cy="131.42" rx="0.81" ry="0.76" transform="translate(-14.34 238.86) rotate(-61.77)"/><polygon class="cls-2" points="185.81 130.78 185.68 130.27 191.77 128.21 191.91 128.72 185.81 130.78"/><ellipse class="cls-2" cx="192.28" cy="128.32" rx="0.81" ry="0.76" transform="translate(-11.72 237.04) rotate(-61.77)"/><polygon class="cls-2" points="185.74 130.39 185.42 129.98 190.42 125.71 190.73 126.12 185.74 130.39"/><ellipse class="cls-2" cx="190.94" cy="125.6" rx="0.81" ry="0.76" transform="translate(-10.04 234.43) rotate(-61.77)"/><path class="cls-1" d="M162.81,177a1.21,1.21,0,0,1-.51-.2,2.28,2.28,0,0,1-.71-1,46,46,0,0,1-4-17.26,37.71,37.71,0,0,1,3.94-17.82c-1.39,6.13-2.65,12.41-1.41,18.36,1,5.06,3.87,9.68,4.64,14.8a3.48,3.48,0,0,1-.24,2.17A1.77,1.77,0,0,1,162.81,177Z"/><path class="cls-1" d="M.06,121.05c.45,4,2.05,5.11,1.69,7.91s-1.91,6-1,9.12,1,17.82,1.05,19.81A45.51,45.51,0,0,1,1,164.25a110.45,110.45,0,0,0-.25,11.09c0,2.38,3.21,2.74,3.57-.06s3.1-4.78,3.07-7.57.67-9.13.64-11.51-.25-19-.69-21.38,0-2.77-.09-5.14.72-5.56.7-7.14-.64-18.23-.67-19.8,1.08-7.14,1.88-8.36-.44-2.76-.86-3.95-.55-10.71-.55-10.71l-.88-7.1s.16-17,.52-19a91.18,91.18,0,0,0,.25-10.32c0-2-2.85-6.31-1.69-7.5a7.32,7.32,0,0,0,2.71-5.58c.36-3.57,1.39-15.08,1.36-17.84A5.52,5.52,0,0,1,12,8.25C18.43,8,38.23,8,42.88,7.92,48,7.84,52.37,6.21,54.36,6.57s7.16,1.88,9.13,1.85,22.18-.3,25.75-.36S96.34,6,98.72,6.73a58.27,58.27,0,0,0,10.74,1.44L134,7.84c2.37,0,17-.22,22.18-.31s7.88-3.26,5.12-3.23A6.43,6.43,0,0,1,156.14,2c-1.21-1.16-1.6-2.35-4.39-1.91s-12.29.17-14.66.2-3.54,2-5.54,1.66S130,0,127.16,0L114.07.21C107.33.29,98.61,0,95.85.07s-2.77,1.21-6.72,2.07-3.6-2.32-6-1.91-3.54,1.63-5.53,1.66-4.76-.72-6.75-.69-12.28.17-15.05.19S46.31.73,44.73.76L23.74,1c-6.25.08-8.38-.06-10.12.85-5-.44-7.28,1.88-8.77,4.57-1.91,3.48-3.51,4-3.43,9.15S2,24.32,2,29.47-.13,48.11,1.5,50.88s-.33,3.95-.3,6.33S-.18,71.09.65,73.86s2,3.93,1.27,5.53S0,81,.81,84.56-.38,117.09.06,121.05Z"/><path class="cls-1" d="M100.8,213.2c-3.18-1.13-.83-2.76-3.6-2.71s-15.46-.19-18.61.25-4.37-.33-9.13-.27S58,211,56,210.66s-2.38.83-3.12,2.41-2.38.83-3.19-.75-2.4-1.55-4-1.13-5.14-.34-6.33-.31-7.55-.69-11.9-.63c-1.54,2-4.75-.72-9.09.11s-9.52-.67-9.52-.67-.14-9.51-.22-15.46.66-10.32-.17-13.08S5.38,185.55,3,186L.7,192.35S.34,195.12,2,195.5s1.21,1.58-.36,3.57-.39,4.79-.36,6.75.47,5.53.52,8.71,3.24,4.32,6.81,4.26,9.9-.52,15.84-.61,5.15.34,7.92-.91,4.78,1.52,9.12,1.47,7.53-.11,9.9-.94,6.75,1.1,10.71,1,13.88.61,16.65-.22,4-.86,8.71-.53c0,0,5.15-.08,8.71-.11s3.18-.06,5.15-1.27S104,214.34,100.8,213.2Z"/><path class="cls-1" d="M214.14,186.29c-2.38,0-4.78-3.09-4.75.47s.88,7.11.94,11.09.91,7.91-1.47,9.13-2.74,2.82-7.08,2.88a56.25,56.25,0,0,1-7.14-.31s-1.19,1.86-2.73,1.64a79.57,79.57,0,0,0-12.7-.61c-2.77,0-3.51,3.21-4.73,2.85s-.44-2.77-3.59-2.71a73.32,73.32,0,0,1-8.72-.28c-4.37-.33-7.08,3.65-9.46,3.29s1.14-3.18-3.21-3.13l-17.42.25c-3.57.06-4.73,2.05-7.11,1.69S122.18,211,119.8,211s-15.46-.19-15.46-.19c1.19,0-.36,2,1.24,3.54s-.36,3.18,1.63,3.15,21,.11,25,0l16.65-.22c2.38,0,13.08.22,16.65.17s21.8-.69,26.94-.77,12.7.22,18.2-3,7.44-6.83,7.36-11.59-.17-12.28-.2-14.66S216.52,186.27,214.14,186.29Z"/><path class="cls-1" d="M209.41,186.74V168.29c0-3.18,1.3-12.67.92-14.27s-.81-6.75-.81-6.75V108.82s5.15,0,5.95,2.38.39,6.75,1.58,9.9a21.33,21.33,0,0,1,1.19,7.94c0,2-1.19,3.57-1.19,5.56v13.86c0,2-1.58,5.94-1.19,7.13s0,4.76.39,6.75,0,11.89,0,16.65,1.18,9.13.38,11.09S209.41,186.74,209.41,186.74Z"/><path class="cls-1" d="M211.1,94.6c0,4.37,2.38,7.91,4,5.15s2.37-8.33,2.76-11.09a59.7,59.7,0,0,0,.39-7.94V66.86c0-4.37.39-11.09.39-11.09l-.39-4.37V22.08c0-3.95,1.19-10.29-.39-12.66s-4.76-7.91-10.7-7.91C202,1.51,196,.32,190.47.32s-10.29,1.19-11.9.8-3.95,2-5.94,1.19-2.77-1.19-4.37-1.19-6.34,1.57-.39,4.37,10.7,1.57,13.86,1.57,4.37-1.18,5.94-.38,7.14.38,7.14.38,9.9,1.19,10.7,2.38,6.34,3.18,6,8.33,0,11.89,0,15,.8,10.71,0,12.29a30.36,30.36,0,0,0-1.58,4.37s.81,3.18,1.19,4.75,0,5.56,0,9.1S211.1,94.6,211.1,94.6Z"/><text class="cls-3" transform="translate(107.77 32.95)">梅屋</text><ellipse class="cls-1" cx="36.28" cy="80.06" rx="14.53" ry="12.2" transform="translate(-3.21 1.53) rotate(-2.32)"/><circle class="cls-1" cx="35.62" cy="63.76" r="10.5"/><circle class="cls-1" cx="21.8" cy="74.95" r="10.5"/><circle class="cls-1" cx="27.77" cy="91.87" r="10.5"/><circle class="cls-1" cx="47.14" cy="90.62" r="10.5"/><circle class="cls-1" cx="50.82" cy="73.02" r="10.5"/><path class="cls-2" d="M37.37,72.15a20.51,20.51,0,0,1-1,4.13,20.1,20.1,0,0,1-1.3-4,15.35,15.35,0,0,1,1-3.78A15.42,15.42,0,0,1,37.37,72.15Z"/><path class="cls-2" d="M31,75.88a20,20,0,0,1,3.63,2.2,20.2,20.2,0,0,1-4.24,0A15.48,15.48,0,0,1,27.05,76,15.74,15.74,0,0,1,31,75.88Z"/><path class="cls-2" d="M32.52,83.14a19.63,19.63,0,0,1,3.21-2.77,20,20,0,0,1-1.32,4,15.84,15.84,0,0,1-3,2.47A15.45,15.45,0,0,1,32.52,83.14Z"/><path class="cls-2" d="M39.9,83.89A20.48,20.48,0,0,1,38.26,80a20.48,20.48,0,0,1,3.43,2.5,15.54,15.54,0,0,1,1.42,3.63A15.4,15.4,0,0,1,39.9,83.89Z"/><path class="cls-2" d="M42.92,77.18a20.2,20.2,0,0,1-4.23.3A20.36,20.36,0,0,1,42.16,75a15.66,15.66,0,0,1,3.9-.18A15.73,15.73,0,0,1,42.92,77.18Z"/><path class="cls-1" d="M54.89,28.88C50.14,30.81,35.3,29,35.3,29s9.36-11.66,14.11-13.59,18.91.18,18.91.18S59.64,27,54.89,28.88Z"/><path class="cls-1" d="M182,192.5c-4.76,1.92-19.6.08-19.6.08s9.36-11.66,14.11-13.59,18.92.19,18.92.19S186.75,190.57,182,192.5Z"/></g></g></svg>