<svg xmlns="http://www.w3.org/2000/svg" viewBox="0 0 329.56 124.26"><defs><style>.cls-1,.cls-3{fill:#231815;}.cls-2{fill:#fff;}.cls-3{stroke:#231815;stroke-miterlimit:10;}.cls-4{fill:#6c6e37;}</style></defs><g id="圖層_2" data-name="圖層 2"><g id="圖層_1-2" data-name="圖層 1"><ellipse class="cls-1" cx="304.87" cy="28.67" rx="14.16" ry="11.9"/><circle class="cls-1" cx="304.87" cy="12.76" r="10.24"/><circle class="cls-1" cx="290.97" cy="23.12" r="10.24"/><circle class="cls-1" cx="296.12" cy="39.85" r="10.24"/><circle class="cls-1" cx="315.04" cy="39.39" r="10.24"/><circle class="cls-1" cx="319.32" cy="22.38" r="10.24"/><path class="cls-2" d="M306.25,21a19.69,19.69,0,0,1-1.11,4A19.69,19.69,0,0,1,304,21a15.21,15.21,0,0,1,1.11-3.64A15.21,15.21,0,0,1,306.25,21Z"/><path class="cls-2" d="M299.85,24.39a19.43,19.43,0,0,1,3.45,2.28,19.9,19.9,0,0,1-4.14-.17A15.71,15.71,0,0,1,296,24.32,15,15,0,0,1,299.85,24.39Z"/><path class="cls-2" d="M301.09,31.52A19.68,19.68,0,0,1,304.33,29a19.54,19.54,0,0,1-1.45,3.87,15.1,15.1,0,0,1-3,2.3A15.07,15.07,0,0,1,301.09,31.52Z"/><path class="cls-2" d="M308.26,32.55a19.57,19.57,0,0,1-1.45-3.88,19.68,19.68,0,0,1,3.24,2.57,15.07,15.07,0,0,1,1.24,3.6A15,15,0,0,1,308.26,32.55Z"/><path class="cls-2" d="M311.46,26.12a19.22,19.22,0,0,1-4.14.13A19.72,19.72,0,0,1,310.8,24a15,15,0,0,1,3.81,0A15.27,15.27,0,0,1,311.46,26.12Z"/><circle class="cls-1" cx="265.24" cy="91.46" r="5.71"/><circle class="cls-1" cx="260.33" cy="77.48" r="5.71"/><ellipse class="cls-1" cx="260.64" cy="85.17" rx="6.25" ry="5.25"/><circle class="cls-1" cx="253.36" cy="82.88" r="5.4"/><circle class="cls-1" cx="256.07" cy="91.69" r="5.4"/><circle class="cls-1" cx="268.29" cy="82.49" r="5.4"/><circle class="cls-2" cx="260.64" cy="85.17" r="0.89"/><rect class="cls-2" x="260.47" y="80.49" width="0.33" height="4.07"/><circle class="cls-2" cx="260.64" cy="80.19" r="0.5"/><rect class="cls-2" x="259.46" y="80.69" width="0.33" height="4.07" transform="translate(-11.89 105.65) rotate(-22.5)"/><circle class="cls-2" cx="258.74" cy="80.57" r="0.5"/><rect class="cls-2" x="258.6" y="81.26" width="0.33" height="4.07" transform="translate(16.89 207.37) rotate(-45)"/><circle class="cls-2" cx="257.12" cy="81.65" r="0.5"/><rect class="cls-2" x="258.02" y="82.12" width="0.33" height="4.07" transform="translate(81.64 290.49) rotate(-67.5)"/><circle class="cls-2" cx="256.04" cy="83.26" r="0.5"/><rect class="cls-2" x="257.82" y="83.14" width="0.33" height="4.07" transform="translate(172.82 343.16) rotate(-90)"/><circle class="cls-2" cx="255.66" cy="85.17" r="0.5"/><rect class="cls-2" x="258.02" y="84.15" width="0.33" height="4.07" transform="translate(277.37 357.7) rotate(-112.5)"/><circle class="cls-2" cx="256.04" cy="87.08" r="0.5"/><rect class="cls-2" x="258.6" y="85.01" width="0.33" height="4.07" transform="translate(380.19 331.57) rotate(-135)"/><circle class="cls-2" cx="257.12" cy="88.69" r="0.5"/><rect class="cls-2" x="259.46" y="85.58" width="0.33" height="4.07" transform="translate(465.96 267.92) rotate(-157.5)"/><circle class="cls-2" cx="258.74" cy="89.77" r="0.5"/><rect class="cls-2" x="260.47" y="85.79" width="0.33" height="4.07" transform="translate(521.28 175.64) rotate(-180)"/><circle class="cls-2" cx="260.64" cy="90.15" r="0.5"/><rect class="cls-2" x="261.49" y="85.58" width="0.33" height="4.07" transform="translate(536.92 68.44) rotate(157.5)"/><circle class="cls-2" cx="262.55" cy="89.77" r="0.5"/><rect class="cls-2" x="262.35" y="85.01" width="0.33" height="4.07" transform="translate(509.69 -37.03) rotate(135)"/><circle class="cls-2" cx="264.16" cy="88.69" r="0.5"/><rect class="cls-2" x="262.92" y="84.15" width="0.33" height="4.07" transform="translate(443.39 -123.9) rotate(112.5)"/><circle class="cls-2" cx="265.24" cy="87.08" r="0.5"/><rect class="cls-2" x="263.12" y="83.14" width="0.33" height="4.07" transform="translate(348.46 -178.12) rotate(90)"/><circle class="cls-2" cx="265.62" cy="85.17" r="0.5"/><rect class="cls-2" x="262.92" y="82.12" width="0.33" height="4.07" transform="translate(240.16 -191.11) rotate(67.5)"/><circle class="cls-2" cx="265.24" cy="83.26" r="0.5"/><rect class="cls-2" x="262.35" y="81.26" width="0.33" height="4.07" transform="translate(135.79 -161.23) rotate(45)"/><circle class="cls-2" cx="264.16" cy="81.65" r="0.5"/><rect class="cls-2" x="261.49" y="80.69" width="0.33" height="4.07" transform="translate(51.57 -93.83) rotate(22.5)"/><circle class="cls-2" cx="262.55" cy="80.57" r="0.5"/><path class="cls-1" d="M264.21,30.31c1.32-3.18,8.71-9.6,8.71-9.6s.69,9.77-.63,12.95-8.52,9.15-8.52,9.15S262.89,33.49,264.21,30.31Z"/><path class="cls-1" d="M238.79,107.78c-1.81-2.37-3.46-10.69-3.46-10.69s7.61,3.74,9.43,6.11,3.2,10.36,3.2,10.36S240.61,110.15,238.79,107.78Z"/><path class="cls-1" d="M187.1,40.81c3.13-1.39,12.73-1.31,12.73-1.31s-6.37,7.18-9.51,8.57S178,49.19,178,49.19,184,42.21,187.1,40.81Z"/><path class="cls-3" d="M209,87c10.86,3,22.07,4.08,33.26,4.95a80.81,80.81,0,0,1,21.68,5c5.87,2.16,14.23,4.4,17.48,10.29a221,221,0,0,0-24.16-8.1c-2.62-.71-5.25-1.37-7.91-1.93-4.27-.89-8.6-1.49-12.94-1.95-9.06-1-18.18-1.34-27.22-2.49-4-.51-9-2.49-13-2.22-3.73.26-8.06,2.2-11.74,3.11q-27.17,6.72-54.62,12.26c-36.66,7.41-73.55,12.79-110.64,17.48-4.35.54-8.32.71-12.35-1.23-1.54-.75-8.76-5.08-5.58-7.2a2.51,2.51,0,0,1,1-.31C18,112.49,34.2,109.51,50,106.73c15.24-2.68,32.09-3.25,46.73-8.35,11.44-4,20.36-13.8,30.3-20.41,11.44-7.6,22.84-15.38,32.66-25a86.71,86.71,0,0,0,15.74-20.46c3.21-6,4.84-18,12.93-19.25.85,3.15-.83,6.42-2.19,9.22-6.79,13.83-14.4,28.15-24.89,39.87-11.92,13.3-28.16,23-42.42,33.55,52.87-9.12,104.94-24.46,152.79-48.71,16-8.09,33-17.47,50.62-14.69-7,2.16-14,4-20.89,6.46-6.3,2.28-12.38,5.13-18.44,8l-62.68,29.3c-4.18,2-8.47,4-11.58,7.39a2.63,2.63,0,0,0-.89,1.86C207.85,86.13,208.48,87.52,209,87Z"/><path class="cls-4" d="M54.3,61.08c11.58,4.74,6.54,13.43,2.22,9.59a19.24,19.24,0,0,0-2.22-7.55V94.49c0,.72-2.76,2.22-5.22,2.22H47.82V72.29a48,48,0,0,1-8.4,10.44l-.72-.65C43,75.17,45.6,65.76,47,56.7H40L39.48,55h8.34V40.2l8.7.9c-.12.9-.6,1.44-2.22,1.68V55H55l2.88-4.14s3.24,2.88,5,4.86c-.12.66-.72,1-1.56,1h-7ZM90.42,72.59c-.24,4.44-.48,8-.84,10.92l2-3.12s3,2.94,4.62,4.86c-.18.66-.72,1-1.56,1h-5.4c-.72,4.26-1.68,6.66-3.06,8-1.86,2-4.5,2.52-7.5,2.52,0-1.74-.12-3-.9-3.84s-2.22-1.62-4.32-2.1l.06-.9a56.48,56.48,0,0,0,5.76.42,2.64,2.64,0,0,0,2-.72,7.72,7.72,0,0,0,1.44-3.42H68.88l-2.4,2.88-6.12-3.72a9,9,0,0,1,2.1-1.32C62.94,81,63.54,77,64,72.59H61.26l-.48-1.73h3.48c.54-4.56,1-9.24,1.32-13.2a36.84,36.84,0,0,1-5.4,4.8L59.52,62c3.84-5.22,7-14.4,8.28-21.78l9.48,1.86c-.18.6-.66,1-2.22.84a46.23,46.23,0,0,1-2.88,5.7H86l3.54-4.74s4,3.24,6.36,5.52c-.12.66-.78,1-1.68,1H71.16a46.52,46.52,0,0,1-2.76,4l5,2.46H84.06l3.42-3.48,5.88,5.1a4,4,0,0,1-2.52,1.08c-.06,3.6-.18,6.78-.3,9.72l1.62-2.58s3.06,3,4.68,5c-.12.65-.72,1-1.5,1ZM83.1,84.47a116.45,116.45,0,0,0,1.08-11.88H70.26c-.54,4.32-1.14,8.53-1.62,11.88Zm-11.22-26C71.52,61.8,71,66.3,70.5,70.86H84.24c.18-3.6.3-7.68.42-12.42ZM73,73.86c12.54,3.3,6.9,12,2.4,8a16.55,16.55,0,0,0-2.94-7.68Zm.9-13.38c12.12,2.76,7,11.1,2.64,7.55a17.19,17.19,0,0,0-3.24-7.19Z"/><path class="cls-4" d="M113.82,59.76c0,11.57-.84,26.87-14,36.77l-.6-.42C106,85.37,106.62,72,106.62,59.82V41.4l8.28,2.88h28.86l3.18-3.42,6.78,5a4.26,4.26,0,0,1-2.46,1.26v9.18c-.06.24-1.56.78-3.18,1.2,1.2.84,4.08,3.06,6.12,4.74-.18.66-.78,1-1.68,1H135.06a72.35,72.35,0,0,1-14.4,8.28c5.7-.12,13.62-.31,22.14-.61a38.17,38.17,0,0,0-6.12-5l.42-.54c20.22.84,17.46,14.75,10.32,11.57a23.43,23.43,0,0,0-3.24-4.5c-5.94,1.45-14.7,3.25-25.32,5.17A3.49,3.49,0,0,1,117.3,79l-3-7.61a12.58,12.58,0,0,0,1.92-.42c3.24-1.32,7.2-5,9.42-7.74H114.9l-.48-1.68h29.46l3.18-3.84a13.71,13.71,0,0,1-1.5.12h-1.2V55.56H113.82Zm35.64,27.89s4.14,3.24,6.48,5.58c-.12.66-.78,1-1.62,1H109.74l-.48-1.74h19.38v-8H114.36l-.48-1.74h14.76V75.78l8.88.71c-.12.79-.54,1.33-2,1.56v4.62h6.24l3.48-4.38s4,3,6.48,5.16c-.18.66-.78,1-1.62,1H135.54v8h10.32ZM113.82,46v7.8h30.54V46Zm14.82,46.43h6.9"/><circle class="cls-1" cx="180.6" cy="27.14" r="7.87"/><circle class="cls-1" cx="173.82" cy="7.87" r="7.87"/><ellipse class="cls-1" cx="174.26" cy="18.47" rx="8.61" ry="7.24"/><circle class="cls-1" cx="164.22" cy="15.31" r="7.44"/><circle class="cls-1" cx="167.96" cy="27.46" r="7.44"/><circle class="cls-1" cx="184.8" cy="14.78" r="7.44"/><circle class="cls-2" cx="174.26" cy="18.47" r="1.22"/><rect class="cls-2" x="174.03" y="12.01" width="0.46" height="5.61"/><circle class="cls-2" cx="174.26" cy="11.61" r="0.68"/><rect class="cls-2" x="172.63" y="12.29" width="0.46" height="5.61" transform="translate(7.38 67.3) rotate(-22.5)"/><circle class="cls-2" cx="171.63" cy="12.13" r="0.68"/><rect class="cls-2" x="171.45" y="13.08" width="0.46" height="5.61" transform="translate(39.05 126.05) rotate(-45)"/><circle class="cls-2" cx="169.41" cy="13.62" r="0.68"/><rect class="cls-2" x="170.65" y="14.27" width="0.46" height="5.61" transform="translate(89.72 168.41) rotate(-67.5)"/><circle class="cls-2" cx="167.92" cy="15.84" r="0.68"/><rect class="cls-2" x="170.38" y="15.66" width="0.46" height="5.61" transform="translate(152.14 189.07) rotate(-90)"/><circle class="cls-2" cx="167.4" cy="18.47" r="0.68"/><rect class="cls-2" x="170.65" y="17.06" width="0.46" height="5.61" transform="translate(217.92 185.34) rotate(-112.5)"/><circle class="cls-2" cx="167.92" cy="21.09" r="0.68"/><rect class="cls-2" x="171.45" y="18.25" width="0.46" height="5.61" transform="translate(278.18 157.33) rotate(-135)"/><circle class="cls-2" cx="169.41" cy="23.32" r="0.68"/><rect class="cls-2" x="172.63" y="19.04" width="0.46" height="5.61" transform="translate(324.2 108.17) rotate(-157.5)"/><circle class="cls-2" cx="171.63" cy="24.81" r="0.68"/><rect class="cls-2" x="174.03" y="19.32" width="0.46" height="5.61" transform="translate(348.52 44.24) rotate(-180)"/><circle class="cls-2" cx="174.26" cy="25.33" r="0.68"/><rect class="cls-2" x="175.43" y="19.04" width="0.46" height="5.61" transform="translate(346.3 -25.2) rotate(157.5)"/><circle class="cls-2" cx="176.88" cy="24.81" r="0.68"/><rect class="cls-2" x="176.61" y="18.25" width="0.46" height="5.61" transform="translate(316.77 -89.11) rotate(135)"/><circle class="cls-2" cx="179.11" cy="23.32" r="0.68"/><rect class="cls-2" x="177.4" y="17.06" width="0.46" height="5.61" transform="translate(263.96 -136.64) rotate(112.5)"/><circle class="cls-2" cx="180.6" cy="21.09" r="0.68"/><rect class="cls-2" x="177.68" y="15.66" width="0.46" height="5.61" transform="translate(196.38 -159.44) rotate(90)"/><circle class="cls-2" cx="181.12" cy="18.47" r="0.68"/><rect class="cls-2" x="177.4" y="14.27" width="0.46" height="5.61" transform="translate(125.43 -153.57) rotate(67.5)"/><circle class="cls-2" cx="180.6" cy="15.84" r="0.68"/><rect class="cls-2" x="176.61" y="13.08" width="0.46" height="5.61" transform="translate(63.03 -120.39) rotate(45)"/><circle class="cls-2" cx="179.11" cy="13.62" r="0.68"/><rect class="cls-2" x="175.43" y="12.29" width="0.46" height="5.61" transform="translate(19.15 -66.07) rotate(22.5)"/><circle class="cls-2" cx="176.88" cy="12.13" r="0.68"/></g></g></svg>