<svg xmlns="http://www.w3.org/2000/svg" viewBox="0 0 218.98 217.17"><defs><style>.cls-1{fill:#231815;}.cls-2{fill:#040000;}.cls-3{fill:#fff;}</style></defs><g id="圖層_2" data-name="圖層 2"><g id="圖層_1-2" data-name="圖層 1"><polygon class="cls-1" points="50.9 152.52 52.25 153.76 64.22 138.87 62.87 137.63 50.9 152.52"/><polygon class="cls-1" points="50.3 163.86 52.26 162.27 44.96 152.02 43.01 153.61 50.3 163.86"/><path class="cls-1" d="M58.48,119.46c-.42,2.48-5,29.77-5.48,39.38-.45,8.52,1.12,33.71,1.12,33.71l-3.29-.22S49.46,166,50,157.07c.45-8,3.75-28.7,4.88-35.69Z"/><path class="cls-1" d="M59.71,68.42C44,74.33,35.43,82.36,30.82,87.87a58.43,58.43,0,0,0-9,14.77l-6.34,25.69-3.59-3.47s.75-3.51,1.81-8.06c2.25-9.62,4.65-17,5.15-18.51C23.41,85,44.57,71.46,51.76,67.06Z"/><polygon class="cls-1" points="185.35 143.2 182.89 142.63 193.08 126.87 195.54 127.44 185.35 143.2"/><path class="cls-2" d="M185.41,143.34l-2.72-.63,10.34-16,2.72.63Zm-2.32-.79,2.2.51,10.05-15.54-2.2-.51Z"/><circle class="cls-1" cx="62.28" cy="76.24" r="7.5"/><circle class="cls-1" cx="55.82" cy="57.88" r="7.5"/><ellipse class="cls-1" cx="56.24" cy="67.97" rx="8.21" ry="6.9"/><circle class="cls-1" cx="46.67" cy="64.97" r="7.09"/><circle class="cls-1" cx="50.23" cy="76.54" r="7.09"/><circle class="cls-1" cx="66.29" cy="64.45" r="7.09"/><circle class="cls-3" cx="56.24" cy="67.97" r="1.17"/><rect class="cls-3" x="56.02" y="61.82" width="0.44" height="5.34"/><circle class="cls-3" cx="56.24" cy="61.43" r="0.65"/><rect class="cls-3" x="54.68" y="62.08" width="0.44" height="5.34" transform="translate(-20.6 25.94) rotate(-22.5)"/><circle class="cls-3" cx="53.73" cy="61.93" r="0.65"/><rect class="cls-3" x="53.55" y="62.84" width="0.44" height="5.34" transform="translate(-30.57 57.21) rotate(-45)"/><circle class="cls-3" cx="51.61" cy="63.35" r="0.65"/><rect class="cls-3" x="52.8" y="63.97" width="0.44" height="5.34" transform="translate(-28.84 90.12) rotate(-67.5)"/><circle class="cls-3" cx="50.19" cy="65.47" r="0.65"/><rect class="cls-3" x="52.53" y="65.3" width="0.44" height="5.34" transform="translate(-15.22 120.73) rotate(-90)"/><circle class="cls-3" cx="49.7" cy="67.97" r="0.65"/><rect class="cls-3" x="52.8" y="66.63" width="0.44" height="5.34" transform="translate(9.28 144.81) rotate(-112.5)"/><circle class="cls-3" cx="50.19" cy="70.48" r="0.65"/><rect class="cls-3" x="53.55" y="67.76" width="0.44" height="5.34" transform="translate(41.99 158.26) rotate(-135)"/><circle class="cls-3" cx="51.61" cy="72.6" r="0.65"/><rect class="cls-3" x="54.68" y="68.52" width="0.44" height="5.34" transform="translate(78.38 157.97) rotate(-157.5)"/><circle class="cls-3" cx="53.73" cy="74.01" r="0.65"/><rect class="cls-3" x="56.02" y="68.78" width="0.44" height="5.34" transform="translate(112.47 142.91) rotate(-180)"/><circle class="cls-3" cx="56.24" cy="74.51" r="0.65"/><rect class="cls-3" x="57.35" y="68.52" width="0.44" height="5.34" transform="translate(138 114.93) rotate(157.5)"/><circle class="cls-3" cx="58.74" cy="74.01" r="0.65"/><rect class="cls-3" x="58.48" y="67.76" width="0.44" height="5.34" transform="translate(150.01 78.73) rotate(135)"/><circle class="cls-3" cx="60.86" cy="72.6" r="0.65"/><rect class="cls-3" x="59.23" y="66.63" width="0.44" height="5.34" transform="translate(146.23 40.9) rotate(112.5)"/><circle class="cls-3" cx="62.28" cy="70.48" r="0.65"/><rect class="cls-3" x="59.5" y="65.3" width="0.44" height="5.34" transform="translate(127.69 8.26) rotate(90)"/><circle class="cls-3" cx="62.78" cy="67.97" r="0.65"/><rect class="cls-3" x="59.23" y="63.97" width="0.44" height="5.34" transform="translate(98.27 -13.79) rotate(67.5)"/><circle class="cls-3" cx="62.28" cy="65.47" r="0.65"/><rect class="cls-3" x="58.48" y="62.84" width="0.44" height="5.34" transform="translate(63.52 -22.32) rotate(45)"/><circle class="cls-3" cx="60.86" cy="63.35" r="0.65"/><rect class="cls-3" x="57.35" y="62.08" width="0.44" height="5.34" transform="matrix(0.92, 0.38, -0.38, 0.92, 29.16, -17.1)"/><circle class="cls-3" cx="58.74" cy="61.93" r="0.65"/><ellipse class="cls-1" cx="174.55" cy="71.33" rx="9.7" ry="8.15" transform="translate(-4.17 11.21) rotate(-3.63)"/><circle class="cls-1" cx="173.85" cy="59.32" r="8.38"/><circle class="cls-1" cx="163.04" cy="68.5" r="8.38"/><circle class="cls-1" cx="168.11" cy="81.88" r="8.38"/><circle class="cls-1" cx="183.52" cy="80.53" r="8.38"/><circle class="cls-1" cx="186.14" cy="66.43" r="8.38"/><rect class="cls-3" x="173.92" y="67.15" width="0.99" height="4.18" transform="translate(-4.04 11.19) rotate(-3.63)"/><ellipse class="cls-3" cx="174.27" cy="66.97" rx="0.93" ry="0.9" transform="translate(-3.89 11.18) rotate(-3.63)"/><rect class="cls-3" x="172.03" y="68.72" width="0.99" height="4.18" transform="translate(61.12 220.37) rotate(-75.63)"/><ellipse class="cls-3" cx="170.32" cy="70.24" rx="0.93" ry="0.9" transform="translate(60.01 217.81) rotate(-75.63)"/><rect class="cls-3" x="172.93" y="71" width="0.99" height="4.18" transform="translate(280.78 227.67) rotate(-147.63)"/><ellipse class="cls-3" cx="172.21" cy="75.02" rx="0.9" ry="0.93" transform="matrix(0.54, -0.84, 0.84, 0.54, 16.66, 180.31)"/><rect class="cls-3" x="175.38" y="70.85" width="0.99" height="4.18" transform="translate(357.86 16.92) rotate(140.37)"/><ellipse class="cls-3" cx="177.33" cy="74.69" rx="0.93" ry="0.9" transform="translate(-6.88 130.28) rotate(-39.63)"/><rect class="cls-3" x="176" y="68.49" width="0.99" height="4.18" transform="translate(179.57 -119.48) rotate(69.13)"/><ellipse class="cls-3" cx="178.63" cy="69.77" rx="0.9" ry="0.93" transform="translate(-13.14 68.22) rotate(-20.87)"/><path class="cls-1" d="M88.59,105.28a1.25,1.25,0,0,1-1-1,39,39,0,0,1,.17-4.78q.63-10.11.49-17.55c0-2.29-.25-3.49-.63-3.58s-1.24.87-2.6,2.88c-1.21,1.78-2.54,3.54-4,5.3s-2.26,2.63-2.5,2.63a.67.67,0,0,1-.45-.24.69.69,0,0,1-.25-.46A6,6,0,0,1,78.69,87a68,68,0,0,0,5-11.55A79.54,79.54,0,0,0,87,62.31c.23-1.5-.12-2.43-1-2.81s-2.56-.21-4.85.49c-.51.19-.86.21-1,.07a3.78,3.78,0,0,1-.77-1.33,5.64,5.64,0,0,1-.6-1.55c0-.14.27-.18.74-.14a31.1,31.1,0,0,0,6.49.35c1.29-.13,2.05-.56,2.28-1.26a35.57,35.57,0,0,0,0-5.76c-.12-3.32-.29-6.11-.53-8.35a1.07,1.07,0,0,0-.07-.35c-.09-.89-.07-1.4.07-1.51s.73,0,1.76.24a1.07,1.07,0,0,0,.35.07,28.58,28.58,0,0,1,5.58,1.79c.77.45.81,1,.11,1.51a2.35,2.35,0,0,0-.85,1.55c-.09.65-.14,2.36-.14,5.12,0,3.51.17,5.52.5,6s1.07-.13,2.24-1.86a7.72,7.72,0,0,1,1.41-1.76c.23-.14.6,0,1.12.35a18.39,18.39,0,0,1,3.65,3.51,6.77,6.77,0,0,0,1,1c.19.12.45.08.78-.1q1.19-.78,3.12-7.2a37.1,37.1,0,0,0,1.93-9.59c0-.42.12-.63.35-.63a7.91,7.91,0,0,1,2.25.49,40.17,40.17,0,0,1,5.79,1.93c.87.45.88.79,0,1a1.65,1.65,0,0,0-.81.56c-.16.24-.57,1-1.23,2.18-.09.19-.23.45-.42.77a9.69,9.69,0,0,0-1.05,2.74c0,.52.49.84,1.47,1,.7.09,2.46.13,5.27.13h3.44a32.52,32.52,0,0,0,5.3-.31,4.11,4.11,0,0,0,1.93-1.79c.19-.28.35-.52.49-.7A20.32,20.32,0,0,1,134.65,46q.76-.5,3.89,2.49c2.09,2,3,3.22,2.64,3.69s-1,.59-2.14.63-5.21.09-12,.14h-2.17q-8.79.08-10.33.18a2.76,2.76,0,0,0-2,.73,3.2,3.2,0,0,1-.21.28,5.48,5.48,0,0,0-1.44,2.74c0,.66.43,1.22,1.37,1.69l.14.07a7.21,7.21,0,0,0,2.46.91c.7.1,2.64.14,5.82.14h2.18a55.53,55.53,0,0,0,5.93-.17,3.25,3.25,0,0,0,1.79-1.09,3.2,3.2,0,0,1,.21-.28c1.17-1.31,1.9-2,2.18-2q.84,0,3.86,2.88a6.27,6.27,0,0,1,1.69,2.14c0,.35-.33.69-1.13,1A2.15,2.15,0,0,0,136,63.4a24.37,24.37,0,0,0-.35,4c-.09,2.76,0,4.43.28,5s.84.29,1.69-.88c.42-.56.81-.79,1.19-.67a6.53,6.53,0,0,1,1.9,1.58c1.68,1.87,2.44,3.07,2.28,3.58s-1.42.82-3.76.92h-.56c-1.69,0-2.68.25-3,.63s-.52,1.68-.66,3.93a5.13,5.13,0,0,0-.07.7,30.84,30.84,0,0,0-.07,6.46c.18.66.77.33,1.75-1,.42-.56.85-.77,1.27-.63a7.75,7.75,0,0,1,2.17,1.82c1.69,1.73,2.43,2.85,2.22,3.34s-1.56.78-4,.87H138a10.21,10.21,0,0,0-3.55.43c-.4.23-.76,1.05-1.09,2.45a1.76,1.76,0,0,0-.07.28,16,16,0,0,1-2.42,5.94,8.53,8.53,0,0,1-4.25,2.77,6.51,6.51,0,0,1-2.67.42,1.15,1.15,0,0,1-1-1.12,5.76,5.76,0,0,0-1.26-3,7.31,7.31,0,0,0-3.16-1.69c-1.22-.37-1.83-.7-1.83-1s.15-.43.46-.45a25.47,25.47,0,0,1,2.56.1,17.73,17.73,0,0,0,5.51-.07,3.35,3.35,0,0,0,2.14-2.25c.38-1,.5-1.68.36-2s-.94-.63-2.25-.77c-1,0-3.28-.08-6.88-.08h-.7q-4.37.07-5.55.15a3.76,3.76,0,0,0-2.11.56,2.36,2.36,0,0,0-.49,1.47v.21q-.28,2.33-4.42,1.83H105c-.71-.1-1.1-.28-1.2-.56a10.82,10.82,0,0,1,.28-3,3.8,3.8,0,0,0,.07-.63q2-14.53,1.55-15.38c-.33-.61-.76-.83-1.3-.67A2.47,2.47,0,0,0,103,78.6a2.59,2.59,0,0,1-2.7,1.83,2.31,2.31,0,0,1-2.22-2.18,12.56,12.56,0,0,0-1.61-4.42c-.8-1.31-1.36-1.67-1.69-1.06q-.21.28-.21,10.43t.21,15.13c.1,2.48.13,3.94.11,4.39a1.14,1.14,0,0,1-.46,1,8.2,8.2,0,0,1-3,1.44A4.85,4.85,0,0,1,88.59,105.28ZM105.65,74.6a2,2,0,0,0,.77-1.34q.21-1,.7-5.54c.24-2.48.35-4.1.35-4.85,0-.93-.25-1.38-.63-1.33A5.88,5.88,0,0,0,104.73,63a24.29,24.29,0,0,1-2.56,2.11c-.44.28-.76.3-1,.07s.14-.7.85-1.69c1.35-2,1.9-3.2,1.65-3.58s-1.72-.56-4.39-.56H98.7c-2.11,0-3.34.24-3.69.56s-.53,1.48-.53,3.44v.57a13.08,13.08,0,0,0,.32,3.89,5.05,5.05,0,0,0,2.07,1.65,18.61,18.61,0,0,1,5.2,4.21C103.28,75.09,104.48,75.39,105.65,74.6Zm22.47,15.94q.84-1,1.33-9.34a7,7,0,0,1,.07-.91,6.83,6.83,0,0,0-.07-2.39c-.23-.47-.84-.75-1.82-.84-.71-.1-2.39-.14-5.06-.14h-4.63a37.72,37.72,0,0,0-4.36.14,2.2,2.2,0,0,0-1.75,1.33,16.77,16.77,0,0,0-.56,3.51c-.1.94-.17,1.69-.22,2.25-.32,2.81-.49,4.53-.49,5.16a2,2,0,0,0,.49,1.44c.38.33,3.23.45,8.57.38S127.79,90.87,128.12,90.54ZM129,74.6a2.83,2.83,0,0,0,.81-1.93c.11-1,.2-3.13.24-6.5V65.05a7.2,7.2,0,0,0-.14-2.39c-.18-.47-.7-.77-1.54-.91a38.38,38.38,0,0,0-4.22-.14H119.9a39.31,39.31,0,0,0-4.63.07,2.15,2.15,0,0,0-1.83,1.19,10.56,10.56,0,0,0-.56,3.23c0,.7-.09,1.27-.14,1.69a51.72,51.72,0,0,0-.35,5.61,1.35,1.35,0,0,0,.84,1.34q.63.29,8,.21C126.15,74.9,128.73,74.79,129,74.6Zm-7.79,13.83c-.33-.09-.78-.72-1.34-1.9a23.07,23.07,0,0,0-3.72-5.33c-.89-.94-1.3-1.52-1.23-1.76s.69-.21,1.86.07q7.1,1.69,8.08,5.9a2.47,2.47,0,0,1-.85,2.7A2.33,2.33,0,0,1,121.17,88.43Zm1.61-15.73a1.62,1.62,0,0,1-1.4-1,18.89,18.89,0,0,0-4.29-5.83c-.89-.93-1.23-1.5-1-1.68s1.07-.1,2.57.28a12.75,12.75,0,0,1,5.12,2.52A5.81,5.81,0,0,1,126,70.31c.09,1.18-.59,2-2,2.39A2.4,2.4,0,0,1,122.78,72.7Z"/><path class="cls-1" d="M79.6,173.45q5.48-10,6.74-26.48.42-5.82.42-17.9a145.87,145.87,0,0,0-.42-15.87v-.28q-.15-.84.21-.84a12,12,0,0,1,2.39.84,5,5,0,0,1,.77.28c.47.19,1.17.45,2.1.77s1.57.66,1.76.71a11.25,11.25,0,0,0,2.88.21Q98.7,115,111,115h3.94c5,0,8.12,0,9.47-.07a15.25,15.25,0,0,0,3.73-.29,2.13,2.13,0,0,0,1.19-.84,3.83,3.83,0,0,1,.39-.45l.45-.46c.75-.84,1.27-1.26,1.55-1.26s1.44.64,3.19,1.93a15,15,0,0,1,3.13,2.7c.23.47-.05.89-.85,1.26a2.9,2.9,0,0,0-1.57,2.25,41.05,41.05,0,0,0,0,6.81,13,13,0,0,1,.07,2.18.86.86,0,0,1-.42.56c-.66.37-.87.81-.63,1.3a8.8,8.8,0,0,0,2.31,2.28,12,12,0,0,1,2.36,2.28c.35.54.36,1,0,1.3a3.43,3.43,0,0,1-1.82.32c-1,0-4.55.06-10.54.1h-3.16c-4.73,0-7.52.12-8.39.21a2.53,2.53,0,0,0-1.86.92.74.74,0,0,0-.28.28c-.19.23-.47.56-.84,1q-3.09,3.58-3.72,4.49c-.66.89-.8,1.46-.42,1.69a7.08,7.08,0,0,0,2.73.28h.64q12.78.14,13.2-.91.14-.5-1-1.62a16.72,16.72,0,0,0-3-2.24c-1.07-.66-1-1,.14-1.06a22.7,22.7,0,0,1,4.64.7,25.53,25.53,0,0,1,5.41,1.83,11.69,11.69,0,0,1,5.65,5.41q1.5,3.3-1.09,4.63a2.64,2.64,0,0,1-2.11.32,4.31,4.31,0,0,1-1.89-1.72,11.54,11.54,0,0,0-3-3.34,4.84,4.84,0,0,0-3.33-.24q-.63.14-6.39,1.12-5.26.91-6.6,1.26a7.58,7.58,0,0,1-2.18.35c-.33,0-1.8.19-4.42.57s-4.26.65-5.34.84A6.3,6.3,0,0,0,98,152.73c-.42.38-.73.45-.94.21a22.06,22.06,0,0,1-1.65-3,1,1,0,0,0-.14-.28,9.49,9.49,0,0,1-.5-1c-.74-1.36-1-2.15-.87-2.39s1.09-.35,2.77-.35h1.61a16.78,16.78,0,0,0,4.6-.35c.54-.23,1.09-1.08,1.65-2.53l.07-.14a3.7,3.7,0,0,0,.14-.49,16.14,16.14,0,0,0,1.27-3.93c.09-.8-.33-1.29-1.27-1.48a31.06,31.06,0,0,0-4.91-.14H98.06a18.1,18.1,0,0,0-3.58.21,1.78,1.78,0,0,0-1.33,1.34,20.33,20.33,0,0,0-.28,3.72v1.26a37.13,37.13,0,0,1-.28,3.94,12,12,0,0,0-.49,2.38,54.64,54.64,0,0,1-4,13.94,39.63,39.63,0,0,1-7.2,10.64c-.84.84-1.42,1.2-1.72,1.09S79,174.62,79.6,173.45Zm9.3-1.13a7.45,7.45,0,0,1-.6-1.44c0-.12.33-.15,1-.1q4.27.34,12.64.35t8.77-.39a2.3,2.3,0,0,0,.57-1.37c0-.56.07-1.75.07-3.58v-.49a19.44,19.44,0,0,0-.22-2.88,1.45,1.45,0,0,0-1.33-1,21.08,21.08,0,0,0-3.51-.07h-.49a68.71,68.71,0,0,0-9.27.7,3.59,3.59,0,0,1-1.54.07A2.86,2.86,0,0,1,94.2,161a1.69,1.69,0,0,0-.14-.35l-.07-.14c-.37-.8-.51-1.26-.42-1.37s.68-.13,1.76,0q2.31.21,8.49.21a42.6,42.6,0,0,0,6.53-.14c.8-.37,1-2.46.7-6.25a4.19,4.19,0,0,1,0-1.61c.1-.14.47-.12,1.13.07q7.93,1.89,6.32,3.3a2.73,2.73,0,0,0-1,2.24,2.28,2.28,0,0,0,.81,2.11,1.31,1.31,0,0,0,.87.32c.4,0,1.54,0,3.41,0h.63a13.39,13.39,0,0,0,3.83-.31,6.75,6.75,0,0,0,2.07-2.22,1.78,1.78,0,0,1,.21-.28c.75-1,1.29-1.55,1.62-1.58a5.87,5.87,0,0,1,2.31,1.3c2.86,2.16,4.15,3.58,3.86,4.29q-.27.56-1.47.66t-8.07.11h-2.39c-2.86,0-4.68,0-5.48.07a2.56,2.56,0,0,0-2,.91,6,6,0,0,0-.29,2.39v2.25a11.45,11.45,0,0,0,.14,2.94,1.64,1.64,0,0,0,1.41,1.06,21.64,21.64,0,0,0,3.93.21h3.23a20.68,20.68,0,0,0,4.49-.28,5.38,5.38,0,0,0,2.11-2.18c.19-.28.35-.51.49-.7.75-1.13,1.28-1.72,1.58-1.79s.9.24,1.79.95a31.24,31.24,0,0,1,3.06,2.88c1,1.07,1.51,1.75,1.51,2v.21c0,.28-.17.47-.63.56a47.4,47.4,0,0,1-4.78.21l-13.2.07h-4q-22,.07-23.31.29c-2.2.23-3.89.44-5.06.63a.55.55,0,0,1-.56-.18A9.56,9.56,0,0,1,88.9,172.32Zm39.29-45.92c.7-.42,1-2,1-4.67s-.42-4.2-1.12-4.53q-.57-.35-16.93-.35t-16.92.35c-.7.33-1.07,1.84-1.12,4.53s.28,4.23,1,4.6q.42.28,17.06.35T128.19,126.4Zm1.12,8.22a3.57,3.57,0,0,0,2-2.36q.35-1.5-1.2-1.44c-.75,0-1.12-.28-1.12-.84a1.17,1.17,0,0,0-.35-.74,1.86,1.86,0,0,0-.84-.52q-.65-.21-16.93-.18t-16.71.32c-.65.33-1,1.27-1,2.84s.26,2.54.91,2.92q.5.27,17.56.28T129.31,134.62Z"/><path class="cls-1" d="M162.41,137.56c-3.69-2.34-9.76-13.54-9.76-13.54s12.72.71,16.41,3,9.24,13.21,9.24,13.21S166.1,139.9,162.41,137.56Z"/><path class="cls-1" d="M193.07,106.85c.51-3.14,6.87-10.33,6.87-10.33s3.76,8.84,3.24,12-6.8,9.88-6.8,9.88S192.55,110,193.07,106.85Z"/><path class="cls-1" d="M158.86,38.35c-1.79-2.63-2.14-12.22-2.14-12.22s8.81,3.81,10.61,6.44,1.88,11.85,1.88,11.85S160.66,41,158.86,38.35Z"/><path class="cls-1" d="M34.52,132.58c-2.36-3.67-3.15-16.39-3.15-16.39s11.24,6,13.6,9.69,2.81,15.86,2.81,15.86S36.88,136.26,34.52,132.58Z"/><path class="cls-1" d="M147.55,5A78.28,78.28,0,0,0,129.6.2c-6.11-.71-12.21.71-18.32.67,7.08,0,14,1.62,20.82,3.59a100.21,100.21,0,0,1,18.43,7.12A59.86,59.86,0,0,1,160,17.77a258.75,258.75,0,0,1,19.4,17.47,79.12,79.12,0,0,1,13.12,17.1,112.62,112.62,0,0,1,14.15,42.13c.24,1.78.43,3.56.58,5.35,4.6,55.58-44.9,101.94-99.79,100.75-49.3-1.08-89.59-41.25-90.81-90.54-1.18-47.9,29.08-87.32,75.17-90.84l-2-14.29C36.17,9,.38,51.71,0,106.91c-.41,59.4,47.45,108.82,106.83,110.23A109.51,109.51,0,0,0,147.55,5Z"/><polygon class="cls-1" points="169.82 98.34 181.98 121.1 185.01 118.89 170.78 97.69 169.82 98.34"/><path class="cls-1" d="M178.86,89.39H175a127.34,127.34,0,0,1,6.62,30.34,136.36,136.36,0,0,1-.15,25.51l-7.59,37.52,4.55-1.78s1.13-5,2.52-11.63c2.94-14,4.68-25.21,5-27.47C188.19,126.65,183.05,104.25,178.86,89.39Z"/><circle class="cls-1" cx="62.05" cy="98.2" r="6"/><circle class="cls-1" cx="52.31" cy="102.77" r="6"/><circle class="cls-1" cx="53.64" cy="113.45" r="6"/><circle class="cls-1" cx="64.22" cy="115.48" r="6"/><circle class="cls-1" cx="69.41" cy="106.05" r="6"/></g></g></svg>