<?xml version="1.0" encoding="utf-8"?>
<!-- Generator: Adobe Illustrator 18.1.1, SVG Export Plug-In . SVG Version: 6.00 Build 0)  -->
<!DOCTYPE svg PUBLIC "-//W3C//DTD SVG 1.1//EN" "http://www.w3.org/Graphics/SVG/1.1/DTD/svg11.dtd">
<svg version="1.1" id="Layer_1" xmlns="http://www.w3.org/2000/svg" xmlns:xlink="http://www.w3.org/1999/xlink" x="0px" y="0px"
	 width="650px" height="450px" viewBox="0 0 650 450" enable-background="new 0 0 650 450" xml:space="preserve">
<path fill="#444444" d="M76.5,63.1v5h8l-1,9h-7v25h-11v-25h-5v-9h5v-5c0,0-0.9-9.5,8-11h11v8h-5C79.5,60.1,76.7,60,76.5,63.1z"/>
<path fill="#444444" d="M194.5,63.1l5-1c0,0-4.2,4.7-5,5c0,0,0,0,0,0c-0.1,2.3,0,3,0,3c-9.6,41.2-45,23-45,23c12.9,0.3,14-5,14-5
	c-7.5-1.1-9-6-9-6c2.6,1.2,4-1,4-1c-8.1-2.1-7-10-7-10c1.4,1.2,3.6,1.7,4.9,1.9c-0.9-1.1-8.5-10.2-3.9-14.9c0,0,5.6,10,20.3,10.9
	l1-0.2c-0.2-0.7-0.2-1.4-0.2-2.2c0-5.8,4.7-10.5,10.5-10.5c7,0,8.5,4,8.5,4l5-3C197.5,57.1,197,62.1,194.5,63.1z"/>
<path fill="#444444" d="M290.5,102.1h-32c-5,0-9-4-9-9v-32c0-5,4-9,9-9h32c5,0,9,4,9,9v32C299.5,98.1,295.5,102.1,290.5,102.1z
	 M274.5,69.1c-4.4,0-8,3.6-8,8s3.6,8,8,8s8-3.6,8-8S278.9,69.1,274.5,69.1z M293.5,58.1h-8v8h8V58.1z M294.5,72.1h-6.9
	c0.6,1.6,0.9,3.2,0.9,5c0,7.7-6.3,14-14,14s-14-6.3-14-14c0-1.8,0.3-3.4,0.9-5h-6.9v18c0,3.9,3.1,7,7,7h26c3.9,0,7-3.1,7-7V72.1z"/>
<path fill="#444444" d="M389.5,100.1V80.5c0,0-1.1-4.1-5-3.9s-5.2,0.8-7,2.9v20.6h-10v-31h10v4.6c0,0,3.3-6.4,10-5.9
	c6.2,0.4,10.8,4.2,11.8,12.3h0.2v20H389.5z M355.5,65.1c-3.3,0-6-2.7-6-6s2.7-6,6-6s6,2.7,6,6S358.8,65.1,355.5,65.1z M360.5,100.1
	h-10v-31h10V100.1z"/>
<path fill="#444444" d="M495.5,72.6c-1.1,5.3-1.9,12.5-13,15c0,0-6.5,1.7-8.6-3c-1.3,5.1-2.6,9.8-3.4,11c-1.7,3-5,7-5,7s0.9-9,1-11
	c0.1-3.1,3-17,3-17s-2.7-9.8,4-11c0,0,5.5-1.3,4,6c0,0-1.1,4.8-2.5,10.3l0.5,0.7c0,0,1.3,2.7,4,3c2.7,0.3,9.8-4.5,10-13
	c0.2-8.5-1.6-10.9-9-13c-7.5-2.1-13.7,1.5-16,8c-2.6,7.4-0.5,9.2,1,11l-1,5c0,0-7.2-2.4-7-10c0.2-7.6,4.5-19,20-19
	C492.9,52.6,496.6,67.2,495.5,72.6z"/>
<path fill="#444444" d="M597,78.1h-6.5v6.5c0,0.8-0.7,1.5-1.5,1.5h-1c-0.8,0-1.5-0.7-1.5-1.5v-6.5H580c-0.8,0-1.5-0.7-1.5-1.5v-1
	c0-0.8,0.7-1.5,1.5-1.5h6.5v-6.5c0-0.8,0.7-1.5,1.5-1.5h1c0.8,0,1.5,0.7,1.5,1.5v6.5h6.5c0.8,0,1.5,0.7,1.5,1.5v1
	C598.5,77.4,597.8,78.1,597,78.1z M574.4,60.5c1.3,1.7,2.1,3.8,2.1,6.1c0,4.3-2.8,7.9-6.8,9.6c0.3,1,1.3,2.1,3.8,3.9
	c4.8,3.5,5,10,5,10l0,0c0,0.2,0,0.3,0,0.5c0,5.2-6.3,9.5-14,9.5s-14-4.3-14-9.5c0-5,5.7-9.1,13-9.5V77c-5.6-0.7-10-5.1-10-10.4
	c0-5.8,5.1-10.5,11.5-10.5c0.2,0,0.3,0,0.5,0l0,0c0,0,11.5-0.9,13-1c1.5-0.1,1,2,1,2L574.4,60.5z M557.5,90.1c0,3.3,3.4,6,7.5,6
	c4.1,0,7.5-2.7,7.5-6s-3.4-6-7.5-6C560.9,84.1,557.5,86.8,557.5,90.1z M569.7,65.6c-0.8-3.8-3.6-6.5-6.2-6c-2.6,0.5-4,4.1-3.2,7.9
	c0.8,3.8,3.6,6.5,6.2,6S570.5,69.5,569.7,65.6z"/>
<path fill="#444444" d="M83.5,178.5c4.8,1.8,8.1,5.6,8.1,9.9c0,6-6.2,10.9-13.9,11.1v0h-7h-7h-3.1v-38l10.1-0.2
	c0,0,19.4-0.8,19.4,9.5C90,174,87.4,176.7,83.5,178.5z M74.1,168.9c-1.4,0-3.2,0.1-3.5,0l-0.1,7.6c0.1,0,2.2,0.1,3.6,0.1
	c2.8,0,5-1.7,5-3.8S76.9,168.9,74.1,168.9z M74.5,183.4c-1.5,0-3.9,0.1-3.9,0l0.1,7.6c0,0,2.4,0,3.9,0c3.4,0,6.2-1.7,6.2-3.8
	C80.7,185.2,77.9,183.4,74.5,183.4z"/>
<path fill="#444444" d="M178.7,186.9c0,0-1.5,0.1-1,1c0.4,0.9,6.8,6.5,7.2,8.1c0.4,1.6,1.1,2.1-1,4.1c-2.1,2-3.7,1.5-7.2-2
	c-3.4-3.6-5.1-5.1-5.1-5.1s-1.7,1.5-5.1,5.1c-3.4,3.6-5.1,4-7.2,2c-2.1-2-1.4-2.4-1-4.1c0.4-1.6,6.8-7.3,7.2-8.1c0.4-0.9-1-1-1-1
	c-9.8-1.1-7.2-7.1-7.2-7.1c2.4-3.7,6.2-1,6.2-1c3.9,2.7,8.2,2,8.2,2s4.3,0.7,8.2-2c0,0,3.7-2.7,6.2,1
	C185.9,179.8,188.5,185.8,178.7,186.9z M171.5,177.1c-6.6,0-12-5.4-12-12s5.4-12,12-12s12,5.4,12,12S178.1,177.1,171.5,177.1z
	 M171.5,160.1c-2.8,0-5,2.2-5,5s2.2,5,5,5s5-2.2,5-5S174.3,160.1,171.5,160.1z"/>
<path fill="#444444" d="M295.5,200l-1.6,1.1l-18.2-8.3l-18.4-24.9c-2.9-3.9-1.3-9.8,3.4-13.3c4.7-3.5,10.9-3.2,13.8,0.7l18.4,24.9
	l0.1-0.1L295.5,200z M289.9,195.7l1.6-1.1l-0.7-10.4c-1.2,0.1-7.4,0.3-8.7-0.7c0.5,1.5-1.5,7.3-1.9,8.5L289.9,195.7z M277.6,190.3
	L277.6,190.3c2.5-4.2,2-8.7,2-8.7l-10.9-14.8c-2,1.7-3.4,3.9-4,6.1L277.6,190.3z M262.5,156.9c-2.9,2.1-4.2,5.4-3.5,7.9
	c0.7-2.3,2.3-4.6,4.6-6.3c2.4-1.7,5-2.6,7.4-2.5C268.9,154.5,265.4,154.8,262.5,156.9z M273.2,158.3c-2.5-0.1-5.3,0.7-7.8,2.5
	c-2.5,1.8-4.1,4.2-4.7,6.7l2.3,3.1c0.6-2.4,2.2-4.9,4.7-6.7c2.5-1.8,5.3-2.6,7.8-2.5L273.2,158.3z M270.2,165.7l10.9,14.8
	c0,0,4.2,1.8,8.9,0.7l0,0l-12.8-17.4C275,163.7,272.5,164.3,270.2,165.7z"/>
<path fill="#444444" d="M374.5,202.1c-13.8,0-25-11.2-25-25c0-1,0.1-2,0.2-2.9c-0.1,0-0.1-0.1-0.2-0.1l0.3-0.6
	c1.7-12.1,12.1-21.4,24.7-21.4c13.8,0,25,11.2,25,25S388.3,202.1,374.5,202.1z M394.2,180.8c-2.7-1.1-5.6-1.7-8.6-1.7
	c-0.9,0-1.8,0-2.7,0.1c1.3,4.2,2.3,9.1,2.6,14.6C390,190.9,393.2,186.2,394.2,180.8z M381.5,195.8c-0.1-1.4-0.7-8.1-3.2-15.9
	c-7.4,1.8-13.3,6.3-16,13c3.4,2.6,7.6,4.2,12.2,4.2C377,197.1,379.3,196.6,381.5,195.8z M354.5,177.1c0,4.7,1.6,9,4.4,12.5
	c3.8-6.6,10.4-11.3,18.1-13.4c-0.3-0.7-0.6-1.5-0.9-2.2c-3.3,1-7.1,1.8-11.6,2.1c-3.3,0.3-6.8,0.4-9.9-0.2
	C354.6,176.3,354.5,176.7,354.5,177.1z M355.4,171.4c3.4,0.8,7.4,1.1,10.2,0.7c3.5-0.5,6.4-1.1,8.8-1.9c-2.2-4.1-5-8-8.7-11
	C360.7,161.6,357,166,355.4,171.4z M370.2,157.6c1.9,1.9,5.2,5.5,8.3,11.1c4-1.9,6.4-4.3,8.5-7.3c-3.4-2.7-7.7-4.3-12.4-4.3
	C373,157.1,371.6,157.3,370.2,157.6z M389.7,164.1c-1.9,3.2-4.9,6.1-9.5,8.2c0.4,0.9,0.9,1.9,1.3,3c1-0.1,2-0.2,3-0.2
	c3.7-0.1,7,0.3,10,1.1C394.3,171.6,392.5,167.4,389.7,164.1z"/>
<path fill="#444444" d="M481.5,162.3h13v4h-13V162.3z M488,169.3c6.4,0,11.5,5.1,11.5,11.5c0,0.5,0,1-0.1,1.5h-5h-5.9h-5.9
	c0.6,3.4,3,6,5.9,6c2.3,0,4.3-1.6,5.3-4h5.2c-1.5,4.6-5.8,8-11,8c-6.4,0-11.5-5.1-11.5-11.5C476.5,174.5,481.7,169.3,488,169.3z
	 M494.1,178.3c-0.8-2.9-3-5-5.6-5s-4.8,2.1-5.6,5H494.1z M466.5,192.1l-17,0.2v-31c0,0,24.2-3.3,24,7c0,0,0.8,5.3-3,7c0,0,5,0.8,5,8
	C475.5,183.3,475.9,190.4,466.5,192.1z M463.5,166.3h-7v7h7c4.1,0,4-3,4-3C467.4,166.1,463.5,166.3,463.5,166.3z M464.5,178.3h-8v8
	h8c4.1,0,4-4,4-4C468.4,178.5,464.5,178.3,464.5,178.3z"/>
<path fill="#444444" d="M578.2,187.8l-0.5,0.2l-5.2-10.9c0.5-0.1,6,0,6,0l1.9,4.2l7-1.9c-3.6-3-9.8-4.3-15.4-4.3
	c-1.6,0-3.1,0.2-4.6,0.6l6.1,13.5l-21.9,6.3c-1.4-2.7-2.2-5.4-2.2-8.3c0-6.3,5.6-11.5,9.9-13.4l-2.9-5.7h7l2.2,3.9
	c3.3-0.5,9.7-0.2,14.4,0.2c7.9,0.7,15,4.9,20.4,9.3L578.2,187.8z M561.7,178.5c-3,2.3-4.9,5.6-5.2,9.3l8.6-2.4L561.7,178.5z"/>
<path fill="#444444" d="M88.8,287.1c-5.9,0-10.7-4.7-10.7-10.5s4.8-10.5,10.7-10.5c5.9,0,10.7,4.7,10.7,10.5S94.7,287.1,88.8,287.1z
	 M60.2,287.1c-5.9,0-10.7-4.7-10.7-10.5s4.8-10.5,10.7-10.5c5.9,0,10.7,4.7,10.7,10.5S66.1,287.1,60.2,287.1z"/>
<path fill="#444444" d="M180.9,299.1h-12.8c-8,0-13.6-6.4-13.6-14.4v-14c0-6,5.6-11.6,11.6-11.6h9.6c9.9,0,11.6,11.2,11.6,11.2
	c0,2.2,1.8,4,4,4h2.4c0.8,1.8,0.8,4.6,0.8,7.2v3.2C194.5,292.6,188.9,299.1,180.9,299.1z M177.5,271.1c0-1.1-0.9-2-2-2h-9
	c-1.1,0-2,0.9-2,2v1c0,1.1,0.9,2,2,2h9c1.1,0,2-0.9,2-2V271.1z M184.5,286.1c0-1.1-0.9-2-2-2h-16c-1.1,0-2,0.9-2,2v1
	c0,1.1,0.9,2,2,2h16c1.1,0,2-0.9,2-2V286.1z"/>
<path fill="#444444" d="M279.5,294.1c0,0,6.6,0.5,9-3v9c0,0-5.7,3-11,3s-13.9-2.6-14-13v-17h-6v-8c0,0,9.4-1,11-13h6v12h12v9h-12v12
	C274.5,285.1,273.7,293.6,279.5,294.1z"/>
<path fill="#444444" d="M391.5,302.1h-34c-4.4,0-8-3.6-8-8v-9c0-4.4,3.6-8,8-8h34c4.4,0,8,3.6,8,8v9
	C399.5,298.5,395.9,302.1,391.5,302.1z M365.5,280.1h-3h-4h-2v2h3v14h3v-14h3V280.1z M372.5,284.1h-2v9.4c-0.7,0.2-2.1,1.6-3-0.4v-9
	h-2v10c0,0-0.1,2.8,2,3c0,0,1.2,0.3,3-1.7v1.7h2V284.1z M378,284.1c-0.5,0-1,0.2-1.5,0.6v-4.6h-2v16c0,0,2.8,1,3.5,1
	c1.9,0,3.5-2.9,3.5-6.5S379.9,284.1,378,284.1z M386.5,284.1c-2.2,0-4,2.9-4,6.5s1.8,6.5,4,6.5c1.9,0,3.5-2.1,3.9-5h-2.9
	c-0.2,1.7-0.3,3-1,3c-0.8,0-0.9-1.8-1-4h1h2h2c0-0.2,0-0.3,0-0.5C390.5,287,388.7,284.1,386.5,284.1z M386.5,286.1
	c0.7,0,0.8,1.3,1,3h-1.9C385.8,287.3,385.9,286.1,386.5,286.1z M377.5,294.1c-0.8,0-1-1-1-3.5s0.2-4.5,1-4.5s1,2,1,4.5
	S378.3,294.1,377.5,294.1z M385.5,271.4c-1.8,2-3,1.7-3,1.7c-2.1-0.2-2-3-2-3v-11h3v11c0.5,0.6,1.3,0.5,2,0.4v-11.4h3v14h-3V271.4z
	 M374,273.1c-2.5,0-4.5-3.4-4.5-7.5s2-7.5,4.5-7.5s4.5,3.4,4.5,7.5S376.5,273.1,374,273.1z M374,261.1c-0.8,0-1.5,2-1.5,4.5
	s0.7,4.5,1.5,4.5s1.5-2,1.5-4.5S374.8,261.1,374,261.1z M365.5,273.1h-1h-1h-1v-9l-4-10h4l1,6l0.5,1.5l0.5-1.5l1-6h4l-4,10V273.1z"
	/>
<path fill="#444444" d="M478.5,270.5c0,1.2,1.5,0.3,3,1c1.5,0.7,4.3,1.5,2,8c0,0-3.3,9.7-6,9c0,0-4.2,0.2-5-9s-2.4-18.5-7-18
	s-11.4,5-16,11c0,0,1.3,3.1,3,3c1.7-0.1,1.6-2.6,3-2s3.6,0.5,5,9s3.6,13,6,17c2.4,4,4.9,4,7,4c2.1,0,8.8-4.8,15-13s11-18.1,11-20
	s1.8-8.8-5-10C487.7,259.3,478.6,266.1,478.5,270.5z"/>
<path fill="#444444" d="M574,303.1c-10.9,0-19.7-8.4-20.4-19.1c0-0.1-0.1-0.2-0.1-0.4v-29c0-1.4,1.1-2.5,2.5-2.5h1
	c1.4,0,2.5,1.1,2.5,2.5v13.5c3.7-3.7,8.8-6,14.5-6c11.3,0,20.5,9.2,20.5,20.5S585.3,303.1,574,303.1z M574,268.1
	c-8,0-14.5,6.5-14.5,14.5s6.5,14.5,14.5,14.5s14.5-6.5,14.5-14.5S582,268.1,574,268.1z M567.5,286.1c-2.2,0-4-1.8-4-4s1.8-4,4-4
	s4,1.8,4,4S569.7,286.1,567.5,286.1z"/>
<path fill="#444444" d="M87.5,394.1c-6.1,0-11-4.5-11-10v-8l3,3l6-3v8c0,1.1,0.9,2,2,2s2-0.9,2-2v-8h9v8
	C98.5,389.6,93.6,394.1,87.5,394.1z M76.5,370.1v-4c0-1.1-0.9-2-2-2s-2,0.9-2,2v10v8c0,5.5-4.9,10-11,10s-11-4.5-11-10v-8h9v8
	c0,1.1,0.9,2,2,2s2-0.9,2-2v-8v-10c0-5.5,4.9-10,11-10s11,4.5,11,10v4l-6,3L76.5,370.1z"/>
<path fill="#444444" d="M174.3,364.7l8.7-7.4l14.7,9l-8.7,7.4L174.3,364.7z M174.3,383.6l14.7-9l8.7,7.4l-14.7,9L174.3,383.6z
	 M183.1,393l5.4-3.1v4.3l-14,8.8h-1l-14-8.8v-4.3l5.4,3.1l7.7-6.4l1.3-1.1l1.3,1.1L183.1,393z M150.2,382l8.7-7.4l14.7,9L165,391
	L150.2,382z M150.2,366.3l14.7-9l8.7,7.4l-14.7,9L150.2,366.3z"/>
<path fill="#444444" d="M294.5,370.6c0,8.3-8.7,15-19.5,15s-19.5-6.7-19.5-15c0-3.2,1.3-6.2,3.6-8.7c-1.3-2.6-1-7.9,0.4-9.2
	c1.2-1.1,5.6,2.7,7.3,4.2c2.5-0.9,5.2-1.4,8.2-1.4c2.6,0,5.1,0.4,7.4,1.1c1.9-1.7,5.9-5,7.1-4c1.2,1.2,1.7,5.7,0.7,8.5
	C292.9,363.8,294.5,367,294.5,370.6z M280.5,385.6c0,0,2.1,0.2,2,4v9c0,0,0.8,1.6,2,2c0,0,1.1,0.9-1,1c0,0-2.1,0.1-3-1
	c-0.9-1.1-1-2-1-3c0-1,0-6,0-6s-0.7-2-1,0v6v2c0,0,0.3,2.2,2,3c0,0-3.7,0.9-5-4v-7c-0.4-1.2-1,0-1,0v7c-1.3,4.9-5,4-5,4
	c1.7-0.8,2-3,2-3v-2v-6c-0.3-2-1,0-1,0s0,5,0,6c0,1-0.1,1.9-1,3c-0.9,1.1-3,1-3,1c-2.1-0.1-1-1-1-1c1.2-0.4,2-2,2-2v-4
	c-0.3-2-4.4-1.4-6-2c-1.6-0.6-4.3-4.3-5-7c-0.7-2.7-3-1-3-1c1.7-3.2,4-1,4-1c5,7.9,10,5,10,5s0,0.2,0,0.6c0.1-3.4,2-3.6,2-3.6h5h0.5
	h0.5H280.5z"/>
<path fill="#444444" d="M387.4,386l1.1,1.1l-15,15l-14-14c-5.6-0.3-10-4.9-10-10.5c0-5.8,4.7-10.5,10.5-10.5c5,0,9.2,3.5,10.3,8.2
	l3.2-3.2l6.7,6.7l17.3-17.7h2v15L387.4,386z M397.5,375.1v-11v0l-25,24l-4.8-6.9c0.5-1.1,0.8-2.3,0.8-3.6c0-4.7-3.8-8.5-8.5-8.5
	s-8.5,3.8-8.5,8.5s3.8,8.5,8.5,8.5c0.6,0,1.1-0.1,1.7-0.2l10.8,9.2l25-19V375.1z"/>
<path fill="#444444" d="M496.5,385.3c0,8.2-9.9,15.8-20.9,15.8c-11.1,0-20-4.8-20-13c0-2.6,1-5.3,2.6-7.7c-4.6-5.1-3.5-15-3.5-11.2
	c0-2.9,1.9-5.7,4.8-8c0.8-0.7,1.7-1.3,2.6-1.7c3.6-2,8-3.4,12.2-3.4c9.3,0,16.9,5,16.9,11.7c0,2.3-1.1,4.5-2.9,6.4
	C493.2,376.7,496.5,380.6,496.5,385.3z M484.6,366.5c-1.5-5.4-8.4-8.2-15.3-6.2c-6.9,2-11.3,8-9.8,13.4c0.5,1.6,1.4,3,2.7,4.1
	c1.5-0.3,3.5-0.5,4.8,0.8c0,0,0.8,0.9-0.9,1.8c0.9-0.5-2.1,0.1-1.7,5.1c0.6,0.6,1.6,1,3.4,1.2c3.8,0.4,2.6-9.4,1.8-17.1
	s4.3-6.4,6.2-6.3c1.9,0.1,1.1,2.5,0,3.6c-1.1,1.1,0,5.4,0,5.4c1.8-1.3,3.6-0.9,3.6-0.9c1.7,0,3.2,0.5,4.4,1.1
	C484.9,370.5,485.2,368.5,484.6,366.5z M484.9,376.7c-1.6,1.5-3.4,1.9-5.3,1.9c-2.7,0.1-4.5-0.9-4.5-0.9v5.4
	c-0.8,8.8-5.2,7.9-7.1,8.1c-1.6,0.2-2.9-1.1-3.4-1.6c1,5.7,6.1,7,12.3,7c6.9,0,12.4-6.5,12.5-11.7
	C489.4,381.6,487.6,378.7,484.9,376.7z"/>
<path fill="#444444" d="M570.5,397.1v-8h-10v-4h-8v-9c0-2.8,2.2-5,5-5c2,0,3.8,1.2,4.6,3c1.1-1.2,2.7-2,4.4-2c2.7,0,4.9,1.7,5.7,4.1
	c1.5-1.9,3.8-3.1,6.3-3.1c4.4,0,8,3.6,8,8v16H570.5z M578.5,371.1c-3.3,0-6-2.7-6-6s2.7-6,6-6s6,2.7,6,6S581.8,371.1,578.5,371.1z
	 M566.5,370.1c-2.2,0-4-1.8-4-4s1.8-4,4-4s4,1.8,4,4S568.7,370.1,566.5,370.1z M557.5,369.1c-1.7,0-3-1.3-3-3s1.3-3,3-3s3,1.3,3,3
	S559.2,369.1,557.5,369.1z"/>
</svg>
