<svg xmlns="http://www.w3.org/2000/svg" viewBox="0 0 174.13 103.78"><defs><style>.cls-1{fill:#fff;}</style></defs><g id="圖層_2" data-name="圖層 2"><g id="圖層_1-2" data-name="圖層 1"><path class="cls-1" d="M174,10.62q0,4-7.91,6.7T146.7,20.07q-11.49,0-28.56-3.15A52.65,52.65,0,0,0,101.66,30.8q-7.47,9.19-16,26T73.06,79.28a51.06,51.06,0,0,1-11,10.88Q43.72,103.78,24,103.78q-10.54,0-17.25-4.46T0,87.74a9.36,9.36,0,0,1,2.12-6.15A6.38,6.38,0,0,1,7.18,79q4.75,0,4.76,5a5.94,5.94,0,0,1-1.47,4,4.57,4.57,0,0,1-3.59,1.68q-3.43,0-3.44-3.37c0-1.17-.19-1.76-.58-1.76-.83,0-1.25,1.2-1.25,3.59q0,5.94,6.12,10t15.05,4.1q19.62,0,35.23-17.73,7.32-8.27,18.89-27.31,18.9-30.91,39.48-40.65-4-.66-11.86-2.42-18.61-4-28.49-4-1,0-6.16.29A30.74,30.74,0,0,1,73.31,25.2q0,16.11-12.23,30.24T34.94,69.58a12.35,12.35,0,0,1-9.42-3.85,13.9,13.9,0,0,1-3.62-9.92q0-8.36,6.33-18.49A65.8,65.8,0,0,1,44.64,19.59,61,61,0,0,1,66.72,9Q60.94,1.16,50.25,1.17A36.41,36.41,0,0,0,32.07,6.42,54.21,54.21,0,0,0,15.93,20.69c-.68.93-1.15,1.39-1.39,1.39a.58.58,0,0,1-.59-.44q0-1.25,6-7.26Q34.38,0,50.11,0,62.33,0,68.7,8.57A73.43,73.43,0,0,1,89.06,6a73.46,73.46,0,0,1,10.84.73q5.2.81,25.49,5,16.92-7.4,32.52-7.4Q173.95,4.32,174,10.62Zm-103.49,11a22.38,22.38,0,0,0-2.71-10.84q-16.41,2.7-30.54,16.92t-14.14,28a12.73,12.73,0,0,0,3.26,8.87,10.42,10.42,0,0,0,8,3.59q12.38,0,24.24-15.28T70.46,21.61ZM172.78,10.77c0-1.42-1.38-2.61-4.14-3.59A31.59,31.59,0,0,0,158.2,5.71a73.65,73.65,0,0,0-30.39,6.59q1.83.3,9.74,1.76a110.19,110.19,0,0,0,20.8,2.27,28.36,28.36,0,0,0,10.18-1.64Q172.78,13,172.78,10.77Z"/><path class="cls-1" d="M137.07,77.38a2,2,0,0,1-.73,1.32L133.19,83q-13.78,19.14-20.53,19.14a7.35,7.35,0,0,1-5.76-2.52,9.23,9.23,0,0,1-2.24-6.34q0-5.13,5.57-13.4,8.72-12.82,8.72-15.24c0-1.9-1-2.85-3-2.85q-4.39,0-12,8.64-7.32,8.28-20.14,31.35a19.05,19.05,0,0,0-3.74-.44,27.68,27.68,0,0,0-4.32.44L86.5,82.32q2.19-4.17,6.74-12.3,2.42-4,14.87-25.2l11.13-18.89a19.76,19.76,0,0,0,3.73.44,20.64,20.64,0,0,0,5.57-.74q-7.62,12.24-22.71,36.63L94.48,81.15q13.77-20.43,21.75-20.43a6.76,6.76,0,0,1,5.39,2.71A10,10,0,0,1,123.85,70q0,5.06-6.44,14.57-7.18,10.64-7.18,13.33,0,3.15,3.15,3.15,5.73,0,18.93-18.48l2.27-3.16,1.32-1.61c.24-.49.54-.73.88-.73A.26.26,0,0,1,137.07,77.38Z"/><path class="cls-1" d="M174.13,77.6a8.72,8.72,0,0,1-1.32,1.9l-3.15,4q-15.18,18.72-26,18.72a11.36,11.36,0,0,1-8.62-3.7,13,13,0,0,1-3.48-9.26Q131.54,76,149.93,66q9.66-5.26,15.74-5.27a6.77,6.77,0,0,1,4.51,1.57A4.86,4.86,0,0,1,172,66.14c0,3.51-2.29,6.51-6.88,9s-12.26,4.77-23,6.92q-5,7.55-5,12.6,0,6.3,6.82,6.3,11.58,0,28.37-22.6.88-1.17,1.47-1.17A.4.4,0,0,1,174.13,77.6ZM167.94,64c0-1.56-.85-2.34-2.56-2.34q-3.88,0-10.22,5.38a75.43,75.43,0,0,0-12.41,14,57.1,57.1,0,0,0,17.87-7.66Q167.94,68.42,167.94,64Z"/></g></g></svg>